<?xml version="1.0" encoding="utf-8"?>
<!-- Generator: Adobe Illustrator 24.2.0, SVG Export Plug-In . SVG Version: 6.00 Build 0)  -->
<svg version="1.1" id="Layer_1" xmlns="http://www.w3.org/2000/svg" xmlns:xlink="http://www.w3.org/1999/xlink" x="0px" y="0px"
	 viewBox="0 0 113.39 56.77" style="enable-background:new 0 0 113.39 56.77;" xml:space="preserve" height="500" width="500">
<style type="text/css">
	.st0{fill:#12100B;}
</style>
<g>
	<path class="st0" d="M37.39,40.6c0,0,3.19-19.82-1.26-24.83c-3.43-3.86-21.47,5.47-24.54,9.71c-2.47,3.41-1.59,7.39,11.39,5.15
		c11.03-1.9,32.02-6.53,33.57,0.42c0.89,4.01-3.68,6.55-3.68,6.55s4.61-2.22,5.1-5.9c1.06-7.97-12.56-7.01-17.92-6.32
		c-3.54,0.45-16.4,3.27-21.51,3.79c-4.2,0.42-7.87-0.74-4.26-4.2c3.25-3.11,16.07-8.95,19.75-8.27
		C37.79,17.42,37.55,27.71,37.39,40.6z"/>
	<path class="st0" d="M72.43,38.54c0,0-13.83-12.19-2.35-13.63c10.21-1.27,18.84,14.35,24.39,1.24c3.62-8.54,5.72-11.81,5.3-7.35
		c-0.85,9.13-3.16,20.51-2.91,19.57c1.38-5.05,7.62-29.94,1.11-24.27c-6.08,5.3-4.44,20.29-14.94,13.23
		c-7.81-5.26-12.03-6.04-15.64-5.37C62.87,22.81,57.65,29.06,72.43,38.54z"/>
</g>
</svg>
